<?xml version="1.0" standalone="no"?>
<!DOCTYPE svg PUBLIC "-//W3C//DTD SVG 20010904//EN"
 "http://www.w3.org/TR/2001/REC-SVG-20010904/DTD/svg10.dtd">
<svg version="1.0" xmlns="http://www.w3.org/2000/svg"
 width="98px" height="96px" viewBox="0 0 1280.000000 1280.000000"
 preserveAspectRatio="xMidYMid meet">

<g transform="translate(0.000000,1280.000000) scale(0.100000,-0.100000)"
fill="#000000" stroke="none">
<path d="M6060 12384 c-518 -62 -977 -226 -1383 -494 -807 -530 -1296 -1382
-1412 -2460 -32 -290 -30 -755 4 -1038 6 -55 5 -62 -8 -57 -172 67 -288 20
-374 -152 -133 -262 -108 -770 55 -1151 137 -318 324 -520 583 -628 57 -23 83
-29 141 -28 l71 1 46 -116 c210 -534 440 -928 673 -1152 70 -66 119 -101 251
-178 88 -50 162 -122 194 -188 20 -40 24 -63 24 -143 0 -88 -3 -100 -36 -170
-91 -189 -298 -400 -544 -552 -66 -41 -554 -328 -1085 -638 -1918 -1119 -2385
-1416 -2540 -1611 -105 -133 -267 -733 -316 -1166 l-7 -63 6002 0 c3300 0
6001 3 6001 8 0 33 -58 390 -86 531 -61 312 -148 610 -191 662 -106 125 -1295
876 -3253 2052 -311 186 -596 364 -633 394 -308 248 -425 500 -325 697 29 56
122 145 196 186 127 71 189 117 273 200 218 215 431 582 640 1100 37 93 63
144 71 142 140 -37 427 128 598 343 313 394 435 1118 250 1484 -16 33 -51 78
-79 103 -77 69 -151 81 -255 42 -21 -8 -40 -14 -41 -12 -1 2 4 73 12 158 21
224 21 701 -1 905 -36 330 -89 584 -181 861 -403 1211 -1400 2006 -2674 2134
-143 14 -522 11 -661 -6z"/>
</g>
</svg>
